<svg xmlns="http://www.w3.org/2000/svg" width="147" height="37" fill="none" viewBox="0 0 147 37">
  <g clip-path="url(#a)">
    <g clip-path="url(#b)">
      <path fill="#fff" d="M9.34 2.693a.619.619 0 0 1 .264-.834 14.969 14.969 0 0 1 14.225.354.619.619 0 0 1 .225.848l-7.12 12.22a.617.617 0 0 1-.535.308h-.016a.622.622 0 0 1-.535-.334L9.34 2.693Zm6.677 16.155L9.507 6.284a.62.62 0 0 0-.833-.266 14.806 14.806 0 1 0 13.62 26.294.62.62 0 0 0 .264-.834l-6.541-12.63Zm7.63 11.874.05.099a.63.63 0 0 0 .359.31c.063.02.13.03.198.024a.786.786 0 0 0 .285-.062c.225-.111.444-.235.656-.371.63-.366 1.23-.78 1.796-1.239h-3.988l.644 1.239Zm-1.288-2.477h5.982c.385-.387.74-.8 1.066-1.239h-7.692l.644 1.239Zm-1.276-2.478h9.203c.254-.397.481-.811.681-1.238H20.44l.644 1.238Zm-1.288-2.477h11.717c.165-.404.305-.818.421-1.239H19.151l.644 1.24Zm-1.289-2.477h13.737c.074-.409.136-.818.173-1.239H17.875l.631 1.239Zm6.64-15.657a.576.576 0 0 0-.471-.062.594.594 0 0 0-.384.285l-.335.57h2.391c-.386-.285-.787-.55-1.201-.793Zm2.7 2.032h-4.608l-.718 1.238h6.503c-.367-.436-.76-.85-1.177-1.238Zm2.105 2.477H21.79l-.719 1.239h9.637c-.223-.43-.476-.844-.756-1.239Zm1.35 2.477H20.353l-.718 1.239h12.15a11.64 11.64 0 0 0-.482-1.239Zm.83 2.478H18.904l-.719 1.238h14.17c-.049-.417-.123-.83-.222-1.238Zm.347 2.477H17.466l-.297.508a.598.598 0 0 0-.013.594l.075.136h15.272c.013-.123.013-.26.013-.384 0-.284-.013-.57-.038-.854Z"/>
      <path fill="#fff" d="M9.055 5.407a.844.844 0 0 0-1.178-.346 15.708 15.708 0 0 0 14.64 27.74.844.844 0 0 0 .378-1.168l-6.92-13.113-6.92-13.113Z"/>
    </g>
    <path fill="#fff" d="M54.616 6.487c2.55 0 4.537.616 5.961 1.849 1.445 1.211 2.168 2.933 2.168 5.164 0 2.232-.723 3.964-2.168 5.197-1.424 1.21-3.411 1.817-5.961 1.817H50.44v7.013h-5.484V6.487h9.66Zm-.861 9.914c2.316 0 3.475-.967 3.475-2.9 0-1.935-1.158-2.902-3.475-2.902H50.44v5.802h3.315Zm12.113 11.126v-15.94h4.782l.223 3.443c.382-1.168.967-2.082 1.753-2.741.808-.68 1.838-1.02 3.092-1.02.404 0 .744.042 1.02.127.298.064.532.138.702.223l-.542 4.463a8.318 8.318 0 0 0-.829-.19 6.145 6.145 0 0 0-1.18-.096c-.977 0-1.827.308-2.55.924-.701.616-1.052 1.54-1.052 2.773v8.034h-5.42Zm21.29.319c-2.657 0-4.761-.723-6.313-2.168-1.53-1.445-2.295-3.486-2.295-6.12 0-1.744.35-3.231 1.052-4.464.723-1.254 1.7-2.2 2.933-2.837 1.254-.659 2.71-.988 4.367-.988 1.68 0 3.103.33 4.272.988 1.19.638 2.093 1.53 2.71 2.678.616 1.126.924 2.423.924 3.889 0 .404-.02.797-.063 1.18-.022.36-.043.669-.064.924H83.81c.148 1.105.51 1.902 1.083 2.39.574.468 1.328.702 2.263.702.808 0 1.446-.16 1.913-.478.489-.319.85-.765 1.084-1.339l4.336 1.435a5.09 5.09 0 0 1-1.563 2.327c-.722.616-1.593 1.084-2.614 1.402-.998.32-2.05.479-3.156.479Zm-.256-12.784c-1.721 0-2.741.989-3.06 2.965h5.834c-.234-1.977-1.158-2.965-2.774-2.965Zm17.633 12.784c-1.594 0-3.071-.255-4.432-.765-1.36-.532-2.497-1.286-3.41-2.264l2.55-2.996c.531.68 1.232 1.253 2.104 1.721.892.446 1.881.67 2.964.67.659 0 1.201-.096 1.626-.287.425-.192.638-.49.638-.893a.907.907 0 0 0-.319-.701c-.212-.192-.638-.351-1.275-.479l-2.232-.446c-1.997-.404-3.421-.999-4.271-1.785-.83-.808-1.244-1.86-1.244-3.156 0-.871.266-1.7.797-2.487.532-.786 1.35-1.434 2.455-1.944s2.518-.765 4.24-.765c3.294 0 5.696.914 7.204 2.741l-2.582 2.933c-.51-.637-1.169-1.137-1.976-1.498-.808-.361-1.615-.542-2.423-.542-1.551 0-2.327.393-2.327 1.18 0 .276.127.52.382.733.277.212.776.382 1.499.51l2.901.573c1.636.32 2.816.872 3.538 1.658.723.765 1.084 1.7 1.084 2.806 0 1.551-.627 2.858-1.881 3.92-1.232 1.042-3.103 1.563-5.61 1.563Zm21.716-16.259v3.858h-4.75v6.407c0 .766.18 1.318.542 1.658.382.319.903.478 1.562.478.51 0 .945-.053 1.307-.16a3.936 3.936 0 0 0 1.02-.541l.574 3.347c-.532.362-1.212.66-2.041.893a9.598 9.598 0 0 1-2.454.319c-1.828 0-3.273-.383-4.336-1.148-1.041-.786-1.573-2.104-1.594-3.953v-7.3h-2.741v-3.857h2.741v-3.57l5.42-1.5v5.07h4.75Zm10.09-.318c1.679 0 3.145.33 4.399.988a7.07 7.07 0 0 1 2.965 2.837c.722 1.233 1.084 2.72 1.084 4.463 0 1.743-.362 3.23-1.084 4.463a7.07 7.07 0 0 1-2.965 2.837c-1.254.66-2.72.989-4.399.989-1.658 0-3.124-.33-4.399-.989a7.327 7.327 0 0 1-2.965-2.837c-.701-1.232-1.052-2.72-1.052-4.463 0-1.742.351-3.23 1.052-4.463a7.327 7.327 0 0 1 2.965-2.837c1.275-.659 2.741-.988 4.399-.988Zm0 3.857c-.935 0-1.668.35-2.2 1.052-.51.68-.765 1.806-.765 3.38 0 1.55.255 2.677.765 3.378.532.702 1.265 1.052 2.2 1.052.956 0 1.689-.35 2.2-1.052.531-.701.797-1.827.797-3.379 0-1.572-.266-2.699-.797-3.379-.511-.701-1.244-1.052-2.2-1.052Z"/>
  </g>
  <defs>
    <clipPath id="a">
      <path fill="#fff" d="M.18-4.473h146.513v41.29H.18z"/>
    </clipPath>
    <clipPath id="b">
      <path fill="#fff" d="M-.012-.32h32.745v34.835H-.012z"/>
    </clipPath>
  </defs>
</svg>
